<svg width="40" height="40" fill="none" xmlns="http://www.w3.org/2000/svg"><path d="M36.667 0H3.333A3.337 3.337 0 000 3.333v33.334A3.337 3.337 0 003.333 40h33.334A3.337 3.337 0 0040 36.667V3.333A3.337 3.337 0 0036.667 0zM3.333 1.333h33.334a2 2 0 012 2v2H1.333v-2a2 2 0 012-2zm33.334 37.334H3.333a2 2 0 01-2-2v-30h37.334v30a2 2 0 01-2 2z" fill="#5586D9"/><path d="M4 4a.667.667 0 100-1.333A.667.667 0 004 4zM6.667 4a.667.667 0 100-1.333.667.667 0 000 1.333zM9.333 4a.667.667 0 100-1.333.667.667 0 000 1.333zM34.667 4h.666a.667.667 0 100-1.333h-.666a.667.667 0 100 1.333zM28 4h4a.667.667 0 000-1.333h-4A.667.667 0 1028 4zM30 26H12.667a5.333 5.333 0 00-5.333 5.16 5.19 5.19 0 001.497 3.794 5.642 5.642 0 004.029 1.713H30c.737 0 1.334-.597 1.334-1.334V34c0-.736-.597-1.333-1.334-1.333V30c.737 0 1.334-.597 1.334-1.333v-1.334c0-.736-.597-1.333-1.334-1.333zm-1.333 6.667h-15.89a1.41 1.41 0 01-1.443-1.264A1.333 1.333 0 0112.667 30h16v2.667zm1.333-4H12.667a2.666 2.666 0 00-2.663 2.804A2.723 2.723 0 0012.777 34H30v1.333H12.86a4.3 4.3 0 01-3.067-1.307A3.867 3.867 0 018.667 31.2a4 4 0 014-3.867H30v1.334zM33.774 13.425L20.458 8.75a1.267 1.267 0 00-.899-.005L6.231 13.422a1.333 1.333 0 00-.046 2.506l6.482 2.518V22c0 1.832 3.8 2.667 7.333 2.667 3.533 0 7.333-.835 7.333-2.667v-3.554l1.334-.519v.74c0 .736.596 1.333 1.333 1.333h1.333c.737 0 1.334-.597 1.334-1.333v-1.334a1.972 1.972 0 00-.211-.875l1.353-.528a1.333 1.333 0 00-.035-2.505zM14 16.677c.1-.37 2.1-1.344 6-1.344s5.9.974 6 1.334v3.714c-1.419-.711-3.762-1.048-6-1.048s-4.581.334-6 1.049v-3.705zm6 6.656c-3.9 0-5.9-.973-6-1.323.1-.37 2.1-1.343 6-1.343 3.867 0 5.867.956 6 1.333-.133.377-2.133 1.333-6 1.333zm8.907-6.93l-1.574.612v-.348c0-1.832-3.8-2.667-7.333-2.667-3.533 0-7.333.835-7.333 2.667v.348l-6-2.333L20 10l10 3.513v1.941a2 2 0 00-1.093.95zm2.426 2.264H30v-1.334a.667.667 0 011.333 0v1.334zm.012-3.207l-.012-.004v-1.472l2 .701-1.988.775z" fill="#5586D9"/></svg>