<svg width="40" height="40" fill="none" xmlns="http://www.w3.org/2000/svg"><path d="M39.334 35.519v-15.52a.652.652 0 00-.077-.294h.007l-1.632-3.264a1.989 1.989 0 00-1.789-1.108h-4.51v-.667a.667.667 0 00-.195-.47l-3.61-3.61a1.973 1.973 0 00-.861-.5V5.59L28 5.232V6.85c0 .685.342 1.324.912 1.703a.667.667 0 10.74-1.109.712.712 0 01-.318-.594V4.815a1.333 1.333 0 00-.32-2.442L20.343.045c-.225-.06-.461-.06-.686 0l-8.67 2.328a1.34 1.34 0 000 2.587l2.346.63V10h-.042c-.592 0-1.154.264-1.533.72l-2.933 3.52a.667.667 0 00-.158.426v.667h-4.51A1.989 1.989 0 002.37 16.44L.737 19.702h.006A.652.652 0 00.667 20v15.519A1.329 1.329 0 000 36.667V38c0 .736.597 1.333 1.333 1.333h8.852c.237.412.674.666 1.148.667h17.334a1.329 1.329 0 001.148-.667h8.852c.736 0 1.333-.597 1.333-1.333v-1.333a1.329 1.329 0 00-.666-1.148zm-10-.186h-.667V20.667H38v14.666h-8.666zm-7.334 0h-4V28h4v7.333zm.667-8.666h-5.334a.667.667 0 00-.666.666v8h-4V20.667h14.667v14.666h-4v-8a.667.667 0 00-.667-.666zM30 15.333v1.333H10v-1.333h20zM28.667 18v1.333H11.333V18h17.334zm7.176-1.334c.253 0 .484.143.596.37l1.15 2.297H30V18c.737 0 1.334-.597 1.334-1.334h4.509zM20 1.333l8.676 2.333h-.008L20.003 6l-8.67-2.339L20 1.333zm-5.333 4.615l4.99 1.34c.225.06.461.06.686 0l4.99-1.34V10H14.668V5.948zm-1.888 5.625a.667.667 0 01.512-.24h12.823c.177 0 .347.07.472.195L29.058 14H10.757l2.022-2.427zm-9.218 5.462a.663.663 0 01.596-.369h4.51C8.667 17.403 9.264 18 10 18v1.333H2.412l1.15-2.298zM1.333 36.667H10V38H1.333v-1.333zm9.334-1.334H2V20.667h9.333v14.666h-.666zm.666 3.334v-2h17.334v2H11.333zM38.667 38H30v-1.333h8.667V38z" fill="#fff"/><path d="M18 22a.667.667 0 00-.666.667V24a.667.667 0 001.333 0v-1.333A.667.667 0 0018 22zM8.667 22.666a.667.667 0 00-.667.667v1.334a.667.667 0 101.333 0v-1.334a.667.667 0 00-.666-.666zM4.667 22.666a.667.667 0 00-.667.667v1.334a.667.667 0 101.333 0v-1.334a.667.667 0 00-.666-.666zM8.667 26.666a.667.667 0 00-.667.667v1.334a.667.667 0 101.333 0v-1.334a.667.667 0 00-.666-.666zM4.667 26.666a.667.667 0 00-.667.667v1.334a.667.667 0 101.333 0v-1.334a.667.667 0 00-.666-.666zM8.667 30.667a.667.667 0 00-.667.666v1.334a.667.667 0 101.333 0v-1.334a.667.667 0 00-.666-.666zM4.667 30.667a.667.667 0 00-.667.666v1.334a.667.667 0 101.333 0v-1.334a.667.667 0 00-.666-.666zM35.334 22.666a.667.667 0 00-.667.667v1.334a.667.667 0 001.333 0v-1.334a.667.667 0 00-.666-.666zM31.334 22.666a.667.667 0 00-.667.667v1.334a.667.667 0 001.333 0v-1.334a.667.667 0 00-.666-.666zM35.334 26.666a.667.667 0 00-.667.667v1.334a.667.667 0 001.333 0v-1.334a.667.667 0 00-.666-.666zM31.334 26.666a.667.667 0 00-.667.667v1.334a.667.667 0 001.333 0v-1.334a.667.667 0 00-.666-.666zM35.334 30.667a.667.667 0 00-.667.666v1.334a.667.667 0 001.333 0v-1.334a.667.667 0 00-.666-.666zM31.334 30.667a.667.667 0 00-.667.666v1.334a.667.667 0 001.333 0v-1.334a.667.667 0 00-.666-.666zM22 22a.667.667 0 00-.666.667V24a.667.667 0 001.333 0v-1.333A.667.667 0 0022 22z" fill="#fff"/></svg>