<svg width="40" height="40" fill="none" xmlns="http://www.w3.org/2000/svg"><path d="M38.667 20.902V2.667A2.667 2.667 0 0036 0H4a2.667 2.667 0 00-2.667 2.667v28C.597 30.667 0 31.264 0 32v2.667C0 35.403.597 36 1.333 36h24.455c.139.408.21.836.212 1.267V38a2 2 0 002 2h8a2 2 0 002-2v-1.14a4.844 4.844 0 01.6-2.303A10.288 10.288 0 0040 29.76v-6.667a2.45 2.45 0 00-1.333-2.191zm-36-18.235c0-.737.597-1.334 1.333-1.334h32c.736 0 1.333.597 1.333 1.334v18.028c-.233.032-.46.1-.674.2a2.389 2.389 0 00-2.097-2.219 2.356 2.356 0 00-1.6.435 2.302 2.302 0 00-1.733-1.102 2.37 2.37 0 00-1.229.216 2.333 2.333 0 00-2.559-2.214 2.383 2.383 0 00-2.088 2.234l-3.186-3.19a1.37 1.37 0 00-1.889 0l-1.887 1.887a1.318 1.318 0 00-.266.391h-1.458v-2a.667.667 0 00-1.334 0v2h-2a.667.667 0 000 1.334h2v2a.667.667 0 001.334 0v-2h1.586c.04.058.085.113.134.164L22 22.44V29.4c.002.427.057.853.161 1.267H2.667v-28zm16.666 15.218L21.222 16l4.111 4.115v3.769l-6-6zm-18 16.782V32h21.351c.237.43.532.824.878 1.171l1.267 1.267c.072.073.14.15.206.229H1.333zm37.334-4.907a8.974 8.974 0 01-1.232 4.155 6.174 6.174 0 00-.768 2.945V38a.667.667 0 01-.667.667h-8a.667.667 0 01-.667-.667v-.733a5.37 5.37 0 00-1.562-3.772l-1.266-1.266a4.028 4.028 0 01-1.172-2.829v-5.628l2 2v1.561a.667.667 0 001.334 0v-8.905a1.071 1.071 0 01.895-1.09 1 1 0 011.105.995v5a.667.667 0 101.333 0v-3a.99.99 0 01.325-.74 1.02 1.02 0 01.78-.256c.53.088.911.554.895 1.09v2.906a.667.667 0 001.333 0V21a.99.99 0 01.325-.74c.213-.192.496-.285.78-.257.53.089.912.554.895 1.09V24a.667.667 0 001.334 0v-1a.99.99 0 01.324-.74c.214-.191.496-.284.781-.257.529.089.911.554.895 1.09v6.667z" fill="#5586D9"/><path d="M29.333 4h5.334v6A.667.667 0 1036 10V4c0-.736-.597-1.333-1.334-1.333h-5.333a.667.667 0 100 1.333zM10.667 20H9.333v-8.667a.667.667 0 00-1.138-.471l-1.333 1.333a.667.667 0 00.943.943L8 12.943V20H6.667a.667.667 0 100 1.333h4a.667.667 0 000-1.333z" fill="#5586D9"/></svg>