<svg width="287" height="44" fill="none" xmlns="http://www.w3.org/2000/svg"><g clip-path="url(#clip0)"><path d="M156.084 23.137a.68.68 0 00-.463-.562l-31.334-10.296a.68.68 0 00-.837.92l3.613 8.259s3.918 8.984 3.938 9.001c-.175.011.139.123 0 0l2.82 6.444a.68.68 0 00.992.301l20.962-13.407a.68.68 0 00.309-.66z" fill="#0D5ADC"/><path d="M125.31 14.05l27.428 8.768-22.972 1.138-4.456-9.905zM134.75 35.626l-4.385-9.697 22.291-1.756-17.906 11.453z" fill="#fff"/></g><path d="M1 1.5c118.5 48.836 285.5 6 285.5 6" stroke="#0D5ADC" stroke-width="2" stroke-dasharray="8 4"/><defs><clipPath id="clip0"><path fill="#fff" transform="rotate(47.935 67.01 153.77)" d="M0 0h30v30H0z"/></clipPath></defs></svg>