<svg width="248" height="59" fill="none" xmlns="http://www.w3.org/2000/svg"><g clip-path="url(#clip0)"><path d="M247.069 15.959a.682.682 0 00-.598-.416l-32.951-1.445a.68.68 0 00-.557 1.113l5.711 6.974-2.021 9.38a.682.682 0 00.371.757c.167.08.351.08.517.022l.003.008 7.354-2.564 4.456 5.442a.68.68 0 001.037.022l16.559-18.575a.683.683 0 00.119-.718z" fill="#0D5ADC"/><path d="M214.984 15.527l26.106 1.144-21.417 4.583-4.689-5.727z" fill="#fff"/><path d="M219.983 22.582l18.23-3.9-16.133 6.252a.682.682 0 00-.282.206l-3.215 3.94 1.4-6.498z" fill="#F4F9FC"/><path d="M219.983 22.582l18.23-3.9-16.133 6.252a.682.682 0 00-.282.206l-3.215 3.94 1.4-6.498z" fill="#fff"/><path d="M219.372 30.27l2.955-3.622 1.651 2.016-4.606 1.606z" fill="#F4F9FC"/><path opacity=".1" d="M219.372 30.27l2.955-3.622 1.651 2.016-4.606 1.606z" fill="#0D5ADC"/><path d="M229.903 33.749l-6.453-7.883 20.598-7.984-14.145 15.867z" fill="#fff"/></g><path d="M239 18C175.026 52.994 79.56 60.583.5 56.132" stroke="#0D5ADC" stroke-width="2" stroke-dasharray="8 4"/><defs><clipPath id="clip0"><path fill="#fff" transform="rotate(32.255 111.005 383.895)" d="M0 0h30v30H0z"/></clipPath></defs></svg>