<svg width="40" height="40" viewBox="0 0 40 40" fill="none" xmlns="http://www.w3.org/2000/svg">
<path d="M36.6667 0H3.33333C1.4933 0.00220408 0.00220408 1.4933 0 3.33333V36.6667C0.00220408 38.5067 1.4933 39.9978 3.33333 40H36.6667C38.5067 39.9978 39.9978 38.5067 40 36.6667V3.33333C39.9978 1.4933 38.5067 0.00220408 36.6667 0ZM3.33333 1.33333H36.6667C37.7712 1.33333 38.6667 2.22876 38.6667 3.33333V5.33333H1.33333V3.33333C1.33333 2.22876 2.22876 1.33333 3.33333 1.33333ZM36.6667 38.6667H3.33333C2.22876 38.6667 1.33333 37.7712 1.33333 36.6667V6.66667H38.6667V36.6667C38.6667 37.7712 37.7712 38.6667 36.6667 38.6667Z" fill="#5586D9"/>
<path d="M4.00016 3.99996C4.36835 3.99996 4.66683 3.70148 4.66683 3.33329C4.66683 2.9651 4.36835 2.66663 4.00016 2.66663C3.63197 2.66663 3.3335 2.9651 3.3335 3.33329C3.3335 3.70148 3.63197 3.99996 4.00016 3.99996Z" fill="#5586D9"/>
<path d="M6.66667 3.99996C7.03486 3.99996 7.33333 3.70148 7.33333 3.33329C7.33333 2.9651 7.03486 2.66663 6.66667 2.66663C6.29848 2.66663 6 2.9651 6 3.33329C6 3.70148 6.29848 3.99996 6.66667 3.99996Z" fill="#5586D9"/>
<path d="M9.33317 3.99996C9.70136 3.99996 9.99984 3.70148 9.99984 3.33329C9.99984 2.9651 9.70136 2.66663 9.33317 2.66663C8.96498 2.66663 8.6665 2.9651 8.6665 3.33329C8.6665 3.70148 8.96498 3.99996 9.33317 3.99996Z" fill="#5586D9"/>
<path d="M34.6667 3.99996H35.3333C35.7015 3.99996 36 3.70148 36 3.33329C36 2.9651 35.7015 2.66663 35.3333 2.66663H34.6667C34.2985 2.66663 34 2.9651 34 3.33329C34 3.70148 34.2985 3.99996 34.6667 3.99996Z" fill="#5586D9"/>
<path d="M28.0002 3.99996H32.0002C32.3684 3.99996 32.6668 3.70148 32.6668 3.33329C32.6668 2.9651 32.3684 2.66663 32.0002 2.66663H28.0002C27.632 2.66663 27.3335 2.9651 27.3335 3.33329C27.3335 3.70148 27.632 3.99996 28.0002 3.99996Z" fill="#5586D9"/>
<path d="M30.0002 26H12.6669C9.78751 25.9985 7.42678 28.2828 7.33356 31.1607C7.29409 32.5765 7.83503 33.9469 8.83089 34.954C9.88851 36.0439 11.3409 36.6613 12.8596 36.6667H30.0002C30.7366 36.6667 31.3336 36.0697 31.3336 35.3333V34C31.3336 33.2636 30.7366 32.6667 30.0002 32.6667V30C30.7366 30 31.3336 29.403 31.3336 28.6667V27.3333C31.3336 26.597 30.7366 26 30.0002 26ZM28.6669 32.6667H12.7769C12.0393 32.6881 11.41 32.1372 11.3336 31.4033C11.3143 31.0377 11.4463 30.6803 11.6984 30.4149C11.9506 30.1495 12.3008 29.9995 12.6669 30H28.6669V32.6667ZM30.0002 28.6667H12.6669C11.9358 28.6666 11.2367 28.9667 10.7332 29.4968C10.2297 30.0269 9.96591 30.7405 10.0036 31.4707C10.1063 32.9181 11.3261 34.0306 12.7769 34H30.0002V35.3333H12.8596C11.7031 35.3276 10.5978 34.8564 9.79289 34.026C9.04721 33.2774 8.64034 32.2563 8.66689 31.2C8.73883 29.0431 10.5088 27.3321 12.6669 27.3333H30.0002V28.6667Z" fill="#5586D9"/>
<path d="M33.7739 13.4247L20.4579 8.74998C20.1691 8.63843 19.8494 8.63653 19.5593 8.74465L6.23125 13.422C5.70069 13.6038 5.3406 14.0981 5.3303 14.6589C5.32001 15.2196 5.66172 15.7269 6.18525 15.928L12.6666 18.446V22C12.6666 23.832 16.4666 24.6667 19.9999 24.6667C23.5333 24.6667 27.3333 23.832 27.3333 22V18.446L28.6666 17.9273V18.6667C28.6666 19.403 29.2635 20 29.9999 20H31.3333C32.0696 20 32.6666 19.403 32.6666 18.6667V17.3333C32.6648 17.0292 32.5927 16.7296 32.4559 16.458L33.8093 15.93C34.333 15.7308 34.6764 15.2253 34.6684 14.665C34.6605 14.1046 34.3031 13.609 33.7739 13.4247V13.4247ZM13.9999 16.6767C14.1006 16.3067 16.0999 15.3333 19.9999 15.3333C23.8999 15.3333 25.8993 16.3067 25.9999 16.6667V20.3813C24.5813 19.67 22.2379 19.3333 19.9999 19.3333C17.7619 19.3333 15.4186 19.6667 13.9999 20.382V16.6767ZM19.9999 23.3333C16.0999 23.3333 14.1006 22.36 13.9999 22.01C14.1006 21.64 16.0999 20.6667 19.9999 20.6667C23.8666 20.6667 25.8666 21.6227 25.9999 22C25.8666 22.3773 23.8666 23.3333 19.9999 23.3333ZM28.9066 16.4033L27.3333 17.0153V16.6667C27.3333 14.8347 23.5333 14 19.9999 14C16.4666 14 12.6666 14.8347 12.6666 16.6667V17.0153L6.66659 14.682L19.9999 9.99998L29.9999 13.5133V15.454C29.5297 15.6228 29.1397 15.9614 28.9066 16.4033ZM31.3333 18.6667H29.9999V17.3333C29.9999 16.9651 30.2984 16.6667 30.6666 16.6667C31.0348 16.6667 31.3333 16.9651 31.3333 17.3333V18.6667ZM31.3453 15.46L31.3333 15.456V13.984L33.3333 14.6853L31.3453 15.46Z" fill="#5586D9"/>
</svg>
