<svg width="40" height="40" viewBox="0 0 40 40" fill="none" xmlns="http://www.w3.org/2000/svg">
<path d="M38.6667 20.902V2.66667C38.6667 1.19391 37.4728 0 36 0H4C2.52724 0 1.33333 1.19391 1.33333 2.66667V30.6667C0.596954 30.6667 0 31.2636 0 32V34.6667C0 35.403 0.596954 36 1.33333 36H25.788C25.9268 36.408 25.9984 36.8358 26 37.2667V38C26 39.1046 26.8954 40 28 40H36C37.1046 40 38 39.1046 38 38V36.86C38.0053 36.0543 38.2116 35.2626 38.6 34.5567C39.4538 33.0971 39.9346 31.4496 40 29.76V23.0933C40.0038 22.17 39.4884 21.323 38.6667 20.902ZM2.66667 2.66667C2.66667 1.93029 3.26362 1.33333 4 1.33333H36C36.7364 1.33333 37.3333 1.93029 37.3333 2.66667V20.6947C37.0997 20.7271 36.8722 20.7945 36.6587 20.8947C36.5851 19.7468 35.7039 18.8143 34.562 18.676C33.9935 18.6224 33.4249 18.7771 32.962 19.1113C32.5892 18.4923 31.9474 18.0843 31.2287 18.0093C30.8072 17.9703 30.3829 18.0449 30 18.2253C29.9705 17.5862 29.6799 16.9873 29.1962 16.5686C28.7125 16.1499 28.078 15.9482 27.4413 16.0107C26.2958 16.1514 25.4158 17.0929 25.3527 18.2453L22.1673 15.0553C21.6381 14.552 20.8072 14.552 20.278 15.0553L18.3913 16.942C18.2795 17.0553 18.1892 17.1879 18.1247 17.3333H16.6667V15.3333C16.6667 14.9651 16.3682 14.6667 16 14.6667C15.6318 14.6667 15.3333 14.9651 15.3333 15.3333V17.3333H13.3333C12.9651 17.3333 12.6667 17.6318 12.6667 18C12.6667 18.3682 12.9651 18.6667 13.3333 18.6667H15.3333V20.6667C15.3333 21.0349 15.6318 21.3333 16 21.3333C16.3682 21.3333 16.6667 21.0349 16.6667 20.6667V18.6667H18.2533C18.2933 18.725 18.3379 18.7801 18.3867 18.8313L22 22.4393V29.4C22.0024 29.8272 22.0566 30.2525 22.1613 30.6667H2.66667V2.66667ZM19.3333 17.8847L21.222 16L25.3333 20.1153V23.884L19.3333 17.8847ZM1.33333 34.6667V32H22.684C22.9209 32.4293 23.2164 32.8235 23.562 33.1713L24.8287 34.438C24.9013 34.5107 24.9687 34.5887 25.0353 34.6667H1.33333ZM38.6667 29.76C38.6016 31.2247 38.1786 32.6512 37.4347 33.9147C36.9369 34.817 36.6729 35.8295 36.6667 36.86V38C36.6667 38.3682 36.3682 38.6667 36 38.6667H28C27.6318 38.6667 27.3333 38.3682 27.3333 38V37.2667C27.3293 35.853 26.7681 34.4979 25.7713 33.4953L24.5047 32.2287C23.7571 31.4767 23.3362 30.4603 23.3333 29.4V23.772L25.3333 25.772V27.3333C25.3333 27.7015 25.6318 28 26 28C26.3682 28 26.6667 27.7015 26.6667 27.3333V18.428C26.6501 17.8917 27.0327 17.4259 27.562 17.338C27.8467 17.3078 28.1306 17.401 28.342 17.594C28.5505 17.783 28.6686 18.0519 28.6667 18.3333V23.3333C28.6667 23.7015 28.9651 24 29.3333 24C29.7015 24 30 23.7015 30 23.3333V20.3333C29.9979 20.0515 30.1159 19.7821 30.3247 19.5927C30.5375 19.4017 30.8207 19.3088 31.1053 19.3367C31.6342 19.4251 32.0163 19.8907 32 20.4267V23.3333C32 23.7015 32.2985 24 32.6667 24C33.0349 24 33.3333 23.7015 33.3333 23.3333V21C33.3312 20.7182 33.4493 20.4487 33.658 20.2593C33.8707 20.0681 34.154 19.9752 34.4387 20.0033C34.9675 20.0918 35.3497 20.5574 35.3333 21.0933V24C35.3333 24.3682 35.6318 24.6667 36 24.6667C36.3682 24.6667 36.6667 24.3682 36.6667 24V23C36.6645 22.7182 36.7826 22.4487 36.9913 22.2593C37.2045 22.069 37.4875 21.9762 37.772 22.0033C38.3009 22.0918 38.683 22.5574 38.6667 23.0933V29.76Z" fill="#5586D9"/>
<path d="M29.3332 3.99996H34.6665V9.99996C34.6665 10.3682 34.965 10.6666 35.3332 10.6666C35.7014 10.6666 35.9998 10.3682 35.9998 9.99996V3.99996C35.9998 3.26358 35.4029 2.66663 34.6665 2.66663H29.3332C28.965 2.66663 28.6665 2.9651 28.6665 3.33329C28.6665 3.70148 28.965 3.99996 29.3332 3.99996Z" fill="#5586D9"/>
<path d="M10.6667 20H9.33333V11.3333C9.33328 11.0637 9.17085 10.8207 8.92177 10.7175C8.67269 10.6143 8.386 10.6714 8.19533 10.862L6.862 12.1953C6.60935 12.4569 6.61297 12.8727 6.87012 13.1298C7.12728 13.387 7.54308 13.3906 7.80467 13.138L8 12.9426V20H6.66667C6.29848 20 6 20.2984 6 20.6666C6 21.0348 6.29848 21.3333 6.66667 21.3333H10.6667C11.0349 21.3333 11.3333 21.0348 11.3333 20.6666C11.3333 20.2984 11.0349 20 10.6667 20Z" fill="#5586D9"/>
</svg>
