<svg width="40" height="40" viewBox="0 0 40 40" fill="none" xmlns="http://www.w3.org/2000/svg">
<path d="M39.3337 35.5186V19.9998C39.3318 19.8967 39.3056 19.7955 39.257 19.7045H39.2637L37.6316 16.4411C37.2956 15.7608 36.6018 15.331 35.843 15.3331H31.3336V14.6665C31.3336 14.4897 31.2633 14.3201 31.1383 14.1951L27.5289 10.5858C27.289 10.3483 26.9922 10.1764 26.6669 10.0864V5.58971L28.0002 5.23171V6.84639V6.85105C27.9995 7.53565 28.3416 8.17513 28.9116 8.5544C29.1097 8.68659 29.3634 8.70302 29.5769 8.5975C29.7905 8.49197 29.9315 8.28054 29.9469 8.04282C29.9623 7.80511 29.8497 7.57725 29.6516 7.44506C29.4527 7.31291 29.3333 7.08985 29.3336 6.85105V6.84639V4.81504C29.8002 4.5455 30.0588 4.02154 29.9887 3.48721C29.9187 2.95287 29.5339 2.51322 29.0136 2.37301L20.3428 0.0449947C20.1183 -0.0149982 19.882 -0.0149982 19.6575 0.0449947L10.9868 2.37301C10.4037 2.53221 9.99918 3.06191 9.99918 3.66636C9.99918 4.27081 10.4037 4.80051 10.9868 4.9597L13.3334 5.58971V9.99975H13.2914C12.6987 10 12.1369 10.2639 11.7581 10.7198L8.82474 14.2398C8.72367 14.3591 8.66774 14.5101 8.66674 14.6665V15.3331H4.15737C3.39918 15.3305 2.70546 15.7592 2.36869 16.4385L0.736673 19.7018H0.74334C0.694374 19.7936 0.668087 19.8958 0.666672 19.9998V35.5186C0.255501 35.7549 0.00143001 36.1924 0 36.6666V38C0 38.7364 0.596959 39.3333 1.33334 39.3333H10.1854C10.4217 39.7445 10.8592 39.9986 11.3334 40H28.6669C29.1411 39.9986 29.5786 39.7445 29.8149 39.3333H38.667C39.4034 39.3333 40.0003 38.7364 40.0003 38V36.6666C39.9989 36.1924 39.7448 35.7549 39.3337 35.5186V35.5186ZM29.3336 35.3333H28.6669V20.6665H38.0003V35.3333H29.3336ZM22.0002 35.3333H18.0002V27.9999H22.0002V35.3333ZM22.6669 26.6666H17.3335C16.9653 26.6666 16.6668 26.965 16.6668 27.3332V35.3333H12.6668V20.6665H27.3336V35.3333H23.3335V27.3332C23.3335 26.965 23.0351 26.6666 22.6669 26.6666ZM30.0003 15.3331V16.6665H10.0001V15.3331H30.0003ZM28.6669 17.9998V19.3332H11.3334V17.9998H28.6669ZM35.843 16.6665C36.0957 16.6657 36.3269 16.8087 36.439 17.0351L37.5883 19.3332H30.0003V17.9998C30.7366 17.9998 31.3336 17.4029 31.3336 16.6665H35.843ZM20.0002 1.33301L28.6762 3.66636H28.6676L20.0035 5.99971L11.3334 3.66103L20.0002 1.33301ZM14.6668 5.94771L19.6575 7.28772C19.8819 7.34816 20.1184 7.34816 20.3428 7.28772L25.3335 5.94771V9.99975H14.6668V5.94771ZM12.7794 11.5731C12.906 11.4211 13.0936 11.3332 13.2914 11.3331H26.1142C26.2913 11.333 26.4611 11.4032 26.5862 11.5284L29.0576 13.9998H10.7568L12.7794 11.5731ZM3.56136 17.0351C3.67348 16.8087 3.90465 16.6657 4.15737 16.6665H8.66674C8.66674 17.4029 9.2637 17.9998 10.0001 17.9998V19.3332H2.41202L3.56136 17.0351ZM1.33334 36.6666H10.0001V38H1.33334V36.6666ZM10.6668 35.3333H2.00002V20.6665H11.3334V35.3333H10.6668ZM11.3334 38.6667V36.6666H28.6669V38.6667H11.3334ZM38.667 38H30.0003V36.6666H38.667V38Z" fill="white"/>
<path d="M18.0002 21.9999C17.632 21.9999 17.3335 22.2984 17.3335 22.6666V23.9999C17.3335 24.3681 17.632 24.6666 18.0002 24.6666C18.3684 24.6666 18.6668 24.3681 18.6668 23.9999V22.6666C18.6668 22.2984 18.3684 21.9999 18.0002 21.9999Z" fill="white"/>
<path d="M8.66667 22.6665C8.29848 22.6665 8 22.965 8 23.3332V24.6665C8 25.0347 8.29848 25.3332 8.66667 25.3332C9.03487 25.3332 9.33334 25.0347 9.33334 24.6665V23.3332C9.33334 22.965 9.03487 22.6665 8.66667 22.6665Z" fill="white"/>
<path d="M4.66667 22.6665C4.29848 22.6665 4 22.965 4 23.3332V24.6665C4 25.0347 4.29848 25.3332 4.66667 25.3332C5.03487 25.3332 5.33334 25.0347 5.33334 24.6665V23.3332C5.33334 22.965 5.03487 22.6665 4.66667 22.6665Z" fill="white"/>
<path d="M8.66667 26.6665C8.29848 26.6665 8 26.965 8 27.3332V28.6665C8 29.0347 8.29848 29.3332 8.66667 29.3332C9.03487 29.3332 9.33334 29.0347 9.33334 28.6665V27.3332C9.33334 26.965 9.03487 26.6665 8.66667 26.6665Z" fill="white"/>
<path d="M4.66667 26.6665C4.29848 26.6665 4 26.965 4 27.3332V28.6665C4 29.0347 4.29848 29.3332 4.66667 29.3332C5.03487 29.3332 5.33334 29.0347 5.33334 28.6665V27.3332C5.33334 26.965 5.03487 26.6665 4.66667 26.6665Z" fill="white"/>
<path d="M8.66667 30.6666C8.29848 30.6666 8 30.9651 8 31.3333V32.6666C8 33.0348 8.29848 33.3333 8.66667 33.3333C9.03487 33.3333 9.33334 33.0348 9.33334 32.6666V31.3333C9.33334 30.9651 9.03487 30.6666 8.66667 30.6666Z" fill="white"/>
<path d="M4.66667 30.6666C4.29848 30.6666 4 30.9651 4 31.3333V32.6666C4 33.0348 4.29848 33.3333 4.66667 33.3333C5.03487 33.3333 5.33334 33.0348 5.33334 32.6666V31.3333C5.33334 30.9651 5.03487 30.6666 4.66667 30.6666Z" fill="white"/>
<path d="M35.3337 22.6665C34.9655 22.6665 34.667 22.965 34.667 23.3332V24.6665C34.667 25.0347 34.9655 25.3332 35.3337 25.3332C35.7019 25.3332 36.0003 25.0347 36.0003 24.6665V23.3332C36.0003 22.965 35.7019 22.6665 35.3337 22.6665Z" fill="white"/>
<path d="M31.3337 22.6665C30.9655 22.6665 30.667 22.965 30.667 23.3332V24.6665C30.667 25.0347 30.9655 25.3332 31.3337 25.3332C31.7019 25.3332 32.0003 25.0347 32.0003 24.6665V23.3332C32.0003 22.965 31.7019 22.6665 31.3337 22.6665Z" fill="white"/>
<path d="M35.3337 26.6665C34.9655 26.6665 34.667 26.965 34.667 27.3332V28.6665C34.667 29.0347 34.9655 29.3332 35.3337 29.3332C35.7019 29.3332 36.0003 29.0347 36.0003 28.6665V27.3332C36.0003 26.965 35.7019 26.6665 35.3337 26.6665Z" fill="white"/>
<path d="M31.3337 26.6665C30.9655 26.6665 30.667 26.965 30.667 27.3332V28.6665C30.667 29.0347 30.9655 29.3332 31.3337 29.3332C31.7019 29.3332 32.0003 29.0347 32.0003 28.6665V27.3332C32.0003 26.965 31.7019 26.6665 31.3337 26.6665Z" fill="white"/>
<path d="M35.3337 30.6666C34.9655 30.6666 34.667 30.9651 34.667 31.3333V32.6666C34.667 33.0348 34.9655 33.3333 35.3337 33.3333C35.7019 33.3333 36.0003 33.0348 36.0003 32.6666V31.3333C36.0003 30.9651 35.7019 30.6666 35.3337 30.6666Z" fill="white"/>
<path d="M31.3337 30.6666C30.9655 30.6666 30.667 30.9651 30.667 31.3333V32.6666C30.667 33.0348 30.9655 33.3333 31.3337 33.3333C31.7019 33.3333 32.0003 33.0348 32.0003 32.6666V31.3333C32.0003 30.9651 31.7019 30.6666 31.3337 30.6666Z" fill="white"/>
<path d="M22.0002 21.9999C21.632 21.9999 21.3335 22.2984 21.3335 22.6666V23.9999C21.3335 24.3681 21.632 24.6666 22.0002 24.6666C22.3684 24.6666 22.6668 24.3681 22.6668 23.9999V22.6666C22.6668 22.2984 22.3684 21.9999 22.0002 21.9999Z" fill="white"/>
</svg>
