<svg width="287" height="44" viewBox="0 0 287 44" fill="none" xmlns="http://www.w3.org/2000/svg">
<g clip-path="url(#clip0)">
<path d="M156.084 23.1367C156.051 22.8748 155.871 22.6567 155.621 22.5746L124.287 12.2789C124.032 12.1946 123.751 12.2688 123.57 12.468C123.389 12.6671 123.342 12.9537 123.45 13.1997L127.063 21.4577C127.063 21.4577 130.981 30.4424 131.001 30.4594C130.826 30.4701 131.14 30.582 131.001 30.4594L133.821 36.9033C133.85 36.9717 133.89 37.0332 133.939 37.0871C134.021 37.178 134.127 37.2462 134.247 37.2825C134.438 37.3408 134.645 37.3123 134.813 37.2045L155.775 23.7966C155.997 23.6546 156.118 23.3982 156.084 23.1367Z" fill="#0D5ADC"/>
<path d="M125.31 14.0505L152.738 22.8177L129.766 23.9557L125.31 14.0505Z" fill="white"/>
<path d="M134.75 35.6258L130.365 25.9285L152.656 24.1726L134.75 35.6258Z" fill="white"/>
</g>
<path d="M1 1.49988C119.5 50.3362 286.5 7.49997 286.5 7.49997" stroke="#0D5ADC" stroke-width="2" stroke-dasharray="8 4"/>
<defs>
<clipPath id="clip0">
<rect width="30" height="30" fill="white" transform="translate(136.271 1) rotate(47.9345)"/>
</clipPath>
</defs>
</svg>
