<svg width="248" height="59" viewBox="0 0 248 59" fill="none" xmlns="http://www.w3.org/2000/svg">
<g clip-path="url(#clip0)">
<path d="M247.069 15.9585C246.966 15.7152 246.733 15.554 246.471 15.5425L213.52 14.098C213.252 14.0859 213.001 14.2333 212.881 14.4739C212.761 14.7146 212.793 15.0032 212.963 15.2108L218.674 22.1851L216.653 31.5641C216.592 31.8463 216.716 32.133 216.955 32.284C216.977 32.2979 217 32.3109 217.024 32.322C217.191 32.4024 217.375 32.4013 217.541 32.3436L217.544 32.3516L224.898 29.7875L229.354 35.2296C229.401 35.2875 229.456 35.3359 229.518 35.3746C229.621 35.44 229.742 35.4768 229.867 35.4795C230.067 35.4841 230.258 35.4008 230.391 35.2515L246.95 16.6772C247.125 16.4806 247.171 16.2013 247.069 15.9585Z" fill="#0D5ADC"/>
<path d="M214.984 15.5272L241.09 16.6712L219.673 21.2542L214.984 15.5272Z" fill="white"/>
<path d="M219.983 22.5823L238.213 18.6816L222.08 24.9344C221.97 24.9776 221.872 25.0478 221.798 25.1395L218.583 29.0801L219.983 22.5823Z" fill="#F4F9FC"/>
<path d="M219.983 22.5823L238.213 18.6816L222.08 24.9344C221.97 24.9776 221.872 25.0478 221.798 25.1395L218.583 29.0801L219.983 22.5823Z" fill="white"/>
<path d="M219.372 30.2697L222.327 26.6477L223.978 28.6638L219.372 30.2697Z" fill="#F4F9FC"/>
<path opacity="0.1" d="M219.372 30.2697L222.327 26.6477L223.978 28.6638L219.372 30.2697Z" fill="#0D5ADC"/>
<path d="M229.903 33.7486L223.45 25.8665L244.048 17.8824L229.903 33.7486Z" fill="white"/>
</g>
<path d="M239 18C175.026 52.9944 79.5598 60.5826 0.5 56.1315" stroke="#0D5ADC" stroke-width="2" stroke-dasharray="8 4"/>
<defs>
<clipPath id="clip0">
<rect width="30" height="30" fill="white" transform="translate(222.011) rotate(32.2551)"/>
</clipPath>
</defs>
</svg>
